<mxfile host="app.diagrams.net" agent="Mozilla/5.0 (Windows NT 10.0; Win64; x64) AppleWebKit/537.36 (KHTML, like Gecko) Chrome/136.0.0.0 Safari/537.36" version="26.2.14">
  <diagram name="Page-1" id="b5b7bab2-c9e2-2cf4-8b2a-24fd1a2a6d21">
    <mxGraphModel dx="2657" dy="801" grid="1" gridSize="10" guides="1" tooltips="1" connect="1" arrows="1" fold="1" page="1" pageScale="1" pageWidth="827" pageHeight="1169" background="none" math="0" shadow="0">
      <root>
        <mxCell id="0" />
        <mxCell id="1" parent="0" />
        <mxCell id="k0KV6_wW4YCRhd3kuSZM-1" value="" style="verticalAlign=top;align=left;spacingTop=8;spacingLeft=2;spacingRight=12;shape=cube;size=10;direction=south;fontStyle=4;html=1;whiteSpace=wrap;" vertex="1" parent="1">
          <mxGeometry x="1090" y="510" width="280" height="160" as="geometry" />
        </mxCell>
        <mxCell id="k0KV6_wW4YCRhd3kuSZM-2" value="" style="shape=cylinder3;whiteSpace=wrap;html=1;boundedLbl=1;backgroundOutline=1;size=9.473729183799492;" vertex="1" parent="1">
          <mxGeometry x="-540" y="564" width="100" height="80" as="geometry" />
        </mxCell>
        <mxCell id="k0KV6_wW4YCRhd3kuSZM-3" value="" style="verticalAlign=top;align=left;shape=cube;size=10;direction=south;fontStyle=0;html=1;boundedLbl=1;spacingLeft=5;whiteSpace=wrap;" vertex="1" parent="1">
          <mxGeometry x="1090" y="740" width="290" height="240" as="geometry" />
        </mxCell>
        <mxCell id="k0KV6_wW4YCRhd3kuSZM-4" value="&amp;lt;&amp;lt;Mobile application&amp;gt;&amp;gt;" style="verticalAlign=top;align=center;shape=cube;size=10;direction=south;html=1;boundedLbl=1;spacingLeft=5;whiteSpace=wrap;" vertex="1" parent="k0KV6_wW4YCRhd3kuSZM-3">
          <mxGeometry width="260" height="180" relative="1" as="geometry">
            <mxPoint x="10" y="50" as="offset" />
          </mxGeometry>
        </mxCell>
        <mxCell id="k0KV6_wW4YCRhd3kuSZM-7" value="&amp;lt;&amp;lt;Device&amp;gt;&amp;gt;&lt;div&gt;Worker&lt;/div&gt;" style="text;html=1;align=center;verticalAlign=middle;resizable=0;points=[];autosize=1;strokeColor=none;fillColor=none;" vertex="1" parent="k0KV6_wW4YCRhd3kuSZM-3">
          <mxGeometry x="81" y="5" width="90" height="40" as="geometry" />
        </mxCell>
        <mxCell id="k0KV6_wW4YCRhd3kuSZM-5" value="" style="verticalAlign=top;align=left;shape=cube;size=10;direction=south;fontStyle=0;html=1;boundedLbl=1;spacingLeft=5;whiteSpace=wrap;" vertex="1" parent="1">
          <mxGeometry x="1090" y="250" width="265" height="220" as="geometry" />
        </mxCell>
        <mxCell id="k0KV6_wW4YCRhd3kuSZM-6" value="&amp;lt;&amp;lt;Mobile APP&amp;gt;&amp;gt;" style="verticalAlign=top;align=center;shape=cube;size=10;direction=south;html=1;boundedLbl=1;spacingLeft=5;whiteSpace=wrap;" vertex="1" parent="k0KV6_wW4YCRhd3kuSZM-5">
          <mxGeometry width="240" height="160" relative="1" as="geometry">
            <mxPoint x="10" y="50" as="offset" />
          </mxGeometry>
        </mxCell>
        <mxCell id="k0KV6_wW4YCRhd3kuSZM-9" value="&amp;lt;&amp;lt;Device&amp;gt;&amp;gt;&lt;div&gt;Manager&lt;/div&gt;" style="text;html=1;align=center;" vertex="1" parent="k0KV6_wW4YCRhd3kuSZM-5">
          <mxGeometry x="16" y="10" width="200" height="25" as="geometry" />
        </mxCell>
        <mxCell id="k0KV6_wW4YCRhd3kuSZM-10" value="Database" style="text;align=center;fontStyle=1;verticalAlign=middle;spacingLeft=3;spacingRight=3;strokeColor=none;rotatable=0;points=[[0,0.5],[1,0.5]];portConstraint=eastwest;html=1;" vertex="1" parent="1">
          <mxGeometry x="-530" y="660" width="80" height="26" as="geometry" />
        </mxCell>
        <mxCell id="k0KV6_wW4YCRhd3kuSZM-11" value="&amp;lt;&amp;lt;web service&amp;gt;&amp;gt;" style="text;strokeColor=none;fillColor=none;align=left;verticalAlign=top;spacingLeft=4;spacingRight=4;overflow=hidden;rotatable=0;points=[[0,0.5],[1,0.5]];portConstraint=eastwest;whiteSpace=wrap;html=1;" vertex="1" parent="1">
          <mxGeometry x="1172.5" y="520" width="115" height="26" as="geometry" />
        </mxCell>
        <mxCell id="k0KV6_wW4YCRhd3kuSZM-12" value="API Server" style="verticalAlign=top;align=left;shape=cube;size=10;direction=south;fontStyle=0;html=1;boundedLbl=1;spacingLeft=5;whiteSpace=wrap;" vertex="1" parent="1">
          <mxGeometry x="250" y="484" width="500" height="230" as="geometry" />
        </mxCell>
        <mxCell id="k0KV6_wW4YCRhd3kuSZM-14" value="User management System" style="verticalAlign=top;align=left;shape=cube;size=10;direction=south;fontStyle=0;html=1;boundedLbl=1;spacingLeft=5;whiteSpace=wrap;" vertex="1" parent="1">
          <mxGeometry x="210" y="240" width="300" height="200" as="geometry" />
        </mxCell>
        <mxCell id="k0KV6_wW4YCRhd3kuSZM-16" value="Crop Rotation System" style="verticalAlign=top;align=left;shape=cube;size=10;direction=south;fontStyle=0;html=1;boundedLbl=1;spacingLeft=5;whiteSpace=wrap;" vertex="1" parent="1">
          <mxGeometry x="580" y="230" width="290" height="210" as="geometry" />
        </mxCell>
        <mxCell id="k0KV6_wW4YCRhd3kuSZM-18" value="Task System" style="verticalAlign=top;align=left;shape=cube;size=10;direction=south;fontStyle=0;html=1;boundedLbl=1;spacingLeft=5;whiteSpace=wrap;" vertex="1" parent="1">
          <mxGeometry x="190" y="800" width="220" height="200" as="geometry" />
        </mxCell>
        <mxCell id="k0KV6_wW4YCRhd3kuSZM-20" value="Inventory management" style="verticalAlign=top;align=left;shape=cube;size=10;direction=south;fontStyle=0;html=1;boundedLbl=1;spacingLeft=5;whiteSpace=wrap;" vertex="1" parent="1">
          <mxGeometry x="630" y="800" width="240" height="210" as="geometry" />
        </mxCell>
        <mxCell id="k0KV6_wW4YCRhd3kuSZM-23" value="&amp;laquo;Annotation&amp;raquo;&lt;br/&gt;&lt;b&gt;Component&lt;/b&gt;" style="html=1;dropTarget=0;whiteSpace=wrap;" vertex="1" parent="1">
          <mxGeometry x="210" y="880" width="140" height="50" as="geometry" />
        </mxCell>
        <mxCell id="k0KV6_wW4YCRhd3kuSZM-24" value="" style="shape=module;jettyWidth=8;jettyHeight=4;" vertex="1" parent="k0KV6_wW4YCRhd3kuSZM-23">
          <mxGeometry x="1" width="20" height="20" relative="1" as="geometry">
            <mxPoint x="-27" y="7" as="offset" />
          </mxGeometry>
        </mxCell>
        <mxCell id="k0KV6_wW4YCRhd3kuSZM-28" value="&amp;laquo;Annotation&amp;raquo;&lt;br/&gt;&lt;b&gt;Component&lt;/b&gt;" style="html=1;dropTarget=0;whiteSpace=wrap;" vertex="1" parent="1">
          <mxGeometry x="250" y="320" width="180" height="90" as="geometry" />
        </mxCell>
        <mxCell id="k0KV6_wW4YCRhd3kuSZM-29" value="" style="shape=module;jettyWidth=8;jettyHeight=4;" vertex="1" parent="k0KV6_wW4YCRhd3kuSZM-28">
          <mxGeometry x="1" width="20" height="20" relative="1" as="geometry">
            <mxPoint x="-27" y="7" as="offset" />
          </mxGeometry>
        </mxCell>
        <mxCell id="k0KV6_wW4YCRhd3kuSZM-30" value="&amp;laquo;Annotation&amp;raquo;&lt;br/&gt;&lt;b&gt;Component&lt;/b&gt;" style="html=1;dropTarget=0;whiteSpace=wrap;" vertex="1" parent="1">
          <mxGeometry x="640" y="310" width="180" height="90" as="geometry" />
        </mxCell>
        <mxCell id="k0KV6_wW4YCRhd3kuSZM-31" value="" style="shape=module;jettyWidth=8;jettyHeight=4;" vertex="1" parent="k0KV6_wW4YCRhd3kuSZM-30">
          <mxGeometry x="1" width="20" height="20" relative="1" as="geometry">
            <mxPoint x="-27" y="7" as="offset" />
          </mxGeometry>
        </mxCell>
        <mxCell id="k0KV6_wW4YCRhd3kuSZM-32" value="&amp;laquo;Annotation&amp;raquo;&lt;br/&gt;&lt;b&gt;Component&lt;/b&gt;" style="html=1;dropTarget=0;whiteSpace=wrap;" vertex="1" parent="1">
          <mxGeometry x="660" y="890" width="180" height="90" as="geometry" />
        </mxCell>
        <mxCell id="k0KV6_wW4YCRhd3kuSZM-33" value="" style="shape=module;jettyWidth=8;jettyHeight=4;" vertex="1" parent="k0KV6_wW4YCRhd3kuSZM-32">
          <mxGeometry x="1" width="20" height="20" relative="1" as="geometry">
            <mxPoint x="-27" y="7" as="offset" />
          </mxGeometry>
        </mxCell>
        <mxCell id="k0KV6_wW4YCRhd3kuSZM-34" value="Database Server" style="verticalAlign=top;align=left;shape=cube;size=10;direction=south;fontStyle=0;html=1;boundedLbl=1;spacingLeft=5;whiteSpace=wrap;" vertex="1" parent="1">
          <mxGeometry x="-200" y="510" width="130" height="140" as="geometry" />
        </mxCell>
        <mxCell id="k0KV6_wW4YCRhd3kuSZM-36" value="«Annotation»&lt;br&gt;&lt;b&gt;API Gateway Service&lt;/b&gt;" style="html=1;dropTarget=0;whiteSpace=wrap;" vertex="1" parent="1">
          <mxGeometry x="380" y="546" width="180" height="90" as="geometry" />
        </mxCell>
        <mxCell id="k0KV6_wW4YCRhd3kuSZM-37" value="" style="shape=module;jettyWidth=8;jettyHeight=4;" vertex="1" parent="k0KV6_wW4YCRhd3kuSZM-36">
          <mxGeometry x="1" width="20" height="20" relative="1" as="geometry">
            <mxPoint x="-27" y="7" as="offset" />
          </mxGeometry>
        </mxCell>
      </root>
    </mxGraphModel>
  </diagram>
</mxfile>
